<svg width="48" height="50" viewBox="0 0 48 50" fill="none" xmlns="http://www.w3.org/2000/svg">
<path d="M15.8083 0.808614C15.1023 1.13034 10.7894 1.90127 8.74774 3.66165C6.70605 5.42203 4.96444 6.40542 3.98184 8.60893C2.99924 10.8124 0.528031 16.9859 0.0985112 21.1683C-0.175778 25.2604 0.123457 29.3718 0.98697 33.3757C1.82247 36.6476 3.49348 41.1578 5.15272 43.513C6.81196 45.8683 14.4197 48.9277 15.8142 49.0855C18.2089 49.3587 21.7804 50.5546 28.4762 49.6926C31.0615 49.175 33.5751 48.331 35.9604 47.1795C37.2608 46.3964 37.9198 46.3297 39.6614 44.4357C41.403 42.5418 44.1213 39.622 45.3687 36.3137C46.4572 33.4424 49.0049 26.5041 47.5751 18.6431C46.1453 10.7821 43.2976 7.96549 42.2797 6.09584C41.1029 3.8984 37.0901 1.40351 34.9543 0.972523C31.5419 0.269507 28.0663 -0.0540644 24.587 0.00735077C20.027 0.0923347 16.8027 0.341203 15.8142 0.790403" fill="white"/>
</svg>
