<svg width="1030" height="29" viewBox="0 0 1030 29" fill="none" xmlns="http://www.w3.org/2000/svg">
<g clip-path="url(#clip0_135_46506)">
<path d="M515.523 14.0865H515.381C514.673 14.1885 515.088 14.1579 515.523 14.0865Z" fill="#AA0000"/>
<path d="M514.461 7.04331C511.518 6.37351 519.26 6.20607 514.824 5.46301C515.239 5.75605 510.793 6.60376 514.461 7.04331Z" fill="#AA0000"/>
<path d="M514 8.67592C514.588 8.75376 515.184 8.75376 515.772 8.67592L515.492 8.60266C515.007 8.7444 514.496 8.76949 514 8.67592Z" fill="#AA0000"/>
<path d="M515.316 7.56659C515.171 7.56659 514.985 7.4724 514.829 7.43054L514 7.5038L515.316 7.56659Z" fill="#AA0000"/>
<path d="M514 13.6157C514.429 13.7943 514.825 14.0456 515.17 14.3587C514.797 13.804 518.651 13.8982 514 13.6157Z" fill="#AA0000"/>
<path d="M514 2.09308C514.774 2.31876 515.57 2.45912 516.373 2.5117C516.542 2.46719 516.703 2.39658 516.85 2.30239L514 2.09308Z" fill="#AA0000"/>
<path d="M515.779 12.4943C515.516 12.4943 515.344 12.4943 515 12.433C515.256 12.4833 515.518 12.5039 515.779 12.4943Z" fill="#AA0000"/>
<path d="M514 7.00133L514.549 6.949C515.814 6.75016 514.933 6.84435 514 7.00133Z" fill="#AA0000"/>
<path d="M515.649 8.38291L515.017 7.58752C513.68 7.78637 513.442 8.7178 515.649 8.38291Z" fill="#AA0000"/>
<path d="M513 5.97583C514.413 6.48619 515.943 6.57341 517.404 6.227C515.642 6.18514 513.891 5.87117 513 5.97583Z" fill="#AA0000"/>
<path d="M513 9.81676L515.974 9.65977L514.586 9.57605L513 9.81676Z" fill="#AA0000"/>
<path d="M0.376683 26.8023C-0.172585 25.6301 -0.980941 24.9394 4.97809 23.5998L8.39806 24.0917L9.71423 23.401L6.14917 23.6522C7.6896 23.1452 9.34334 23.1052 10.906 23.537C11.3882 23.1129 11.9825 22.8401 12.616 22.7521L16.8651 23.5684C17.3314 23.0556 14.9271 22.7835 17.6838 22.2916C19.6736 22.6789 15.9116 23.5056 19.1554 23.5998C21.1349 22.8882 20.5027 22.48 22.9174 22.7626C23.2283 22.4277 22.7101 22.2707 21.7567 22.2079C23.9019 22.4068 27.353 21.9149 28.5033 22.4695C30.576 21.6218 35.6438 22.0719 35.3433 20.9416C37.2289 21.325 39.1517 21.4901 41.0743 21.4335C37.4263 20.3869 48.3288 20.7637 47.2924 19.3404C50.0077 20.3869 56.8165 19.131 61.5112 19.4345C61.1255 19.2992 60.7148 19.2527 60.309 19.2985C62.0142 19.0683 63.6985 18.7008 65.3457 18.1996C65.7603 19.2462 65.4286 18.3043 67.6671 18.7647C70.7762 17.5194 70.0508 18.5136 70.9938 17.488C70.8902 18.3043 76.6316 17.8961 75.5849 18.6706C77.9996 17.8961 77.6576 18.231 78.8909 17.2996C79.409 18.5554 81.2019 17.3728 83.285 18.0217C86.8086 17.1531 84.1348 16.7554 88.0626 16.9124C89.8969 16.41 86.3941 16.1693 86.3941 16.1693C90.3737 15.9077 88.3217 16.9961 89.1922 17.4984C93.9594 17.4984 91.3478 16.6612 92.9335 16.0751C95.9182 16.1588 98.2396 16.9019 100.447 16.7449C100.602 16.5775 101.027 16.5042 100.52 16.3263C102.592 16.7135 105.826 16.41 108.883 16.3263C110.334 16.0019 111.785 15.6983 112.831 15.4995C114.703 15.2444 116.591 15.129 118.48 15.1541C118.614 15.0704 118.697 14.9972 118.925 14.8716C124.594 14.3274 125.309 14.9972 130.957 14.453C132.263 14.882 130.574 15.2065 131.869 15.6356C139.974 16.1065 138.087 13.082 144.088 13.9715C145.642 14.4948 146.295 15.5832 150.482 14.7878L149 13.8564C154.493 13.4797 152.203 15.1437 157.934 14.1913C156.897 13.8355 153.602 14.0657 154.42 13.8983C158.12 12.925 157.094 14.3483 159.954 14.2122L160.514 13.2913C166.369 13.1552 172.857 13.4901 179.345 13.3436C178.982 13.1029 177.852 12.8727 179.345 12.5273C187.815 12.4189 196.272 11.8179 204.673 10.7272L207.72 11.3552C208.425 11.3552 209.005 10.947 208.238 10.8319C211.347 10.4028 208.425 11.3133 209.917 11.554C211.669 11.554 212.207 11.0098 211.088 10.8214C216.539 11.2296 226.633 11.5226 232.292 10.4551L231.162 10.2877C235.598 9.77486 236.261 11.6273 240.355 10.7272L239.557 10.633C241.85 10.4532 244.15 10.4043 246.449 10.4865L250.045 10.2144L248.387 10.5598L250.159 10.6644C252.231 10.4761 254.304 10.0365 256.667 9.95278L255.133 9.54462L258.895 9.08414C259.31 10.047 263.745 9.08414 261.714 10.3086C268.761 10.4865 273.228 9.02135 279.622 8.66552C278.513 8.66552 278.949 8.89576 278.731 9.06321C281.499 9.11322 284.259 8.72477 286.908 7.912C286.462 8.23643 285.581 8.37248 285.581 8.63412C289.986 8.45621 288.234 7.95386 293.095 7.45152C291.768 7.92246 292.193 8.11084 293.53 8.1527C293.302 7.80734 294.421 7.50384 295.313 7.36779C291.727 9.4609 300.795 7.912 298.556 9.55509C298.784 9.13647 306.319 7.95386 304.111 7.2736L302.795 7.47245C302.619 6.94917 304.433 7.07476 305.79 6.98057C305.287 7.01631 304.794 7.14768 304.339 7.36779C311.21 6.42589 318.475 6.698 326.206 5.88169C325.543 6.11193 322.434 6.59334 324.434 6.6666C332.134 6.6666 336.57 5.41074 344.311 4.5735C344.716 5.79796 335.927 5.10724 335.679 6.30031C343.845 5.67238 352.26 4.877 361.318 3.84091C364.572 5.52586 370.158 2.7211 375.827 3.84091C375.267 3.2653 378.066 2.91994 381.123 2.79436C380.086 3.33856 383.32 3.21298 382.439 3.61067C385.102 2.93041 392.802 2.36527 392.574 3.55834C393.227 2.3862 398.337 3.33856 400.513 2.51179C403.923 2.81529 407.767 1.99898 412.058 2.18736C410.534 1.52803 416.276 1.67455 417.83 1.36058C417.385 1.36058 416.504 1.53849 416.721 1.63268C418.017 2.22922 421.603 0.962889 423.976 1.27686C425.075 1.5071 423.727 1.94665 425.489 1.96758C425.489 1.45477 431.966 0.690785 434.371 1.25592C433.741 1.27346 433.126 1.44591 432.578 1.75827C443.895 0.711717 455.999 1.51756 467.555 0.387285L465.482 1.27686C472.736 2.32341 470.166 -0.0627326 475.897 6.0582e-05C491.577 0.303561 507.89 1.36058 523.176 0.805906C524.295 0.554733 522.523 0.502406 522.336 0.136113C523.673 0.240768 524.046 0.962889 525.85 0.502405L525.445 0.0419226C532.43 1.29779 545.613 -0.763923 550.774 1.22453C557.458 0.502406 562.174 1.83153 570.278 0.753579C572.838 1.18267 567.293 1.53849 570.755 1.67455L578.279 0.994285L577.875 1.05708C585.129 -0.282508 597.026 2.79436 606.136 1.86292L605.753 1.93618C605.535 2.25015 607.411 2.66877 608.862 2.57458C609.38 2.3548 608.385 2.21875 607.514 1.93618C615.629 1.48617 617.401 1.48617 623.827 1.45477C621.049 1.90479 626.386 1.90479 626.656 2.57458C628.345 2.15596 625.692 1.87339 629.454 1.52803C634.801 1.52803 639.714 2.19782 644.149 2.49086C645.953 1.92572 648.295 2.12456 648.44 1.39198C654.482 1.39198 657.84 1.2036 665.25 1.39198L665.436 1.65361C667.447 0.764044 671.851 2.22922 673.24 1.72687C673.033 2.0513 672.204 2.16642 672.431 2.42806L675.81 2.18736C674.214 2.43853 673.281 3.2967 676.048 3.44322C678.95 2.84668 675.271 2.9932 676.681 2.49086L677.53 3.35949C679.707 3.35949 680.339 2.31294 677.686 2.04084C685.096 2.20829 692.423 1.95711 699.024 2.23968L698.32 2.78389C701.915 2.58644 705.52 2.77235 709.077 3.33856C709.181 3.17111 710.113 2.89901 709.512 2.70017C713.886 2.06177 709.948 3.6316 714.694 2.93041C713.513 3.10832 712.02 3.18158 711.813 3.49555L720.736 3.04553C720.819 3.46415 726.198 4.56303 729.98 4.31186C730.125 4.08162 729.058 3.73625 728.104 3.65253L730.519 3.52694L732.343 4.5735L735.856 3.84091V4.64675C738.427 4.57349 739.484 3.6002 741.567 3.73625C749.329 4.55256 747.785 4.78281 753.226 5.74563C753.92 4.22813 762.014 6.19565 763.465 5.1491C770.782 6.6352 781.497 6.43636 791.146 7.24221L790.348 7.33639C794.441 8.25736 795.105 6.40496 799.54 6.9387L798.421 7.10615C804.1 8.20503 814.163 7.97479 819.625 7.6085C818.506 7.78641 819.034 8.30969 820.796 8.34108C822.288 8.12131 819.407 7.18988 822.464 7.65036C821.698 7.75501 822.288 8.12131 822.983 8.17364L826.04 7.56664C834.435 8.73517 842.887 9.43394 851.358 9.65974C852.861 10.026 851.731 10.2353 851.358 10.4761C857.856 10.6958 864.333 10.4761 870.199 10.654L870.738 11.5854C873.609 11.7528 872.603 10.3295 876.282 11.3552C877.111 11.5226 873.816 11.261 872.769 11.5854C878.479 12.632 876.22 10.9261 881.713 11.3761L880.21 12.2866C884.356 13.1552 885.05 12.0668 886.625 11.5749C892.615 10.7796 890.708 13.7832 898.813 13.4483C900.118 13.0401 898.44 12.6843 899.745 12.2761C905.394 12.925 906.119 12.2761 911.777 12.9355C914.7 14.6518 908.886 12.7261 912.088 14.3588L907.798 13.7099C911.456 14.7565 904.399 13.7099 904.917 14.5995C907.694 15.0495 911.985 14.5995 915.643 14.5995C915.643 15.2693 911.415 14.3692 913.021 15.3948L914.907 15.2588C914.38 15.5415 913.779 15.6513 913.187 15.5728C913.809 16.2426 915.374 15.7611 917.156 15.8763C917.234 15.629 917.231 15.363 917.147 15.1178C917.063 14.8727 916.902 14.6615 916.69 14.5157C916.822 14.6415 916.982 14.7346 917.156 14.7878C920.866 14.0971 926.97 15.3007 930.162 14.7878C929.644 14.9448 930.069 15.039 930.225 15.2169C932.422 15.4367 934.764 14.7355 937.749 14.7251C939.324 15.353 936.712 16.117 941.459 16.2426C942.35 15.7611 940.319 14.6099 944.298 14.9867C944.298 14.9867 940.785 15.1332 942.609 15.6879C946.547 15.6879 943.863 15.9809 947.355 16.9228C949.428 16.3158 951.211 17.5403 951.76 16.3054C952.952 17.2682 952.641 16.9228 955.035 17.7705C953.999 16.9751 959.74 17.5403 959.667 16.724C960.579 17.7705 955.398 17.4775 958.517 18.8171C960.766 18.4089 964.86 18.5554 965.295 17.5612C966.921 18.0776 968.584 18.4695 970.269 18.7334C969.868 18.6843 969.46 18.7273 969.077 18.8589C973.772 18.6078 980.55 19.9055 983.286 18.9427C982.25 20.3241 993.121 19.9892 989.504 21.0358C991.427 21.1191 993.354 20.9787 995.245 20.6171C994.924 21.737 1000.02 21.3497 1002.05 22.2288C1003.2 21.6846 1006.66 22.2288 1008.8 22.0405C1007.85 22.0928 1007.33 22.2498 1007.63 22.5847C1010.04 22.3335 1009.41 22.7312 1011.38 23.4742C1014.63 23.4114 1010.87 22.5323 1012.86 22.1765C1015.62 22.6998 1013.22 22.951 1013.67 23.4638L1017.92 22.6998C1018.56 22.7938 1019.15 23.0739 1019.63 23.5056C1021.2 23.0928 1022.85 23.151 1024.38 23.6731L1020.82 23.38L1022.13 24.0917L1026.41 23.7463C1031.59 25.1592 1029.3 26.2267 1029.82 27.3883H1027.33C1027.33 27.807 1028.54 28.1314 1029.63 28.2465C1030.62 28.6233 1026.05 29.2931 1023.33 29.1779C1016.08 28.4244 1021.95 27.6186 1017.01 26.8651L1010.53 26.9697V26.5511C1010.22 26.4402 1009.9 26.3924 1009.57 26.4104C1009.24 26.4283 1008.92 26.5117 1008.62 26.6558C1009.12 26.0802 1003.44 25.965 1000.82 25.6092L1001.71 26.2267C994.313 26.8023 990.312 23.8196 984.561 23.9452L980.415 24.4789L979.648 23.6103C977.234 23.8615 976.757 24.4371 972.902 23.7987C965.967 22.5838 958.972 21.7592 951.947 21.3288C948.392 21.0776 944.827 20.8474 941.293 20.5439C937.759 20.2404 934.256 19.9264 930.815 19.4241C931.245 19.6722 931.722 19.8256 932.214 19.8741C920.224 16.9333 913.073 20.4288 902.233 18.1264L903 17.8856C897.414 17.6554 903.787 17.6345 899.756 16.9333C898.927 17.8438 892.626 17.1845 889.392 17.331C890.242 17.2275 891.097 17.1786 891.952 17.1845C891.28 16.6138 890.412 16.3353 889.537 16.41C885.889 17.5612 878.22 16.9123 872.531 16.9856C871.899 16.3158 867.038 15.4576 864.561 14.275C863.512 14.4004 862.473 14.5998 861.452 14.8716C859.431 14.3378 858.343 15.0076 856.799 15.2902C858.613 15.3844 860.24 14.8192 861.452 14.8716C861.452 14.8716 861.317 15.5518 861.286 15.5728C861.473 15.5728 861.804 15.5728 862.084 15.5728C863.318 15.5728 863.96 15.5728 863.67 15.5728C865.908 16.3158 863.494 16.0437 863.597 16.7972C861.742 16.6507 857.897 16.6821 857.504 16.1065C856.384 16.0332 855.659 15.9077 854.509 15.7297C853.744 15.8232 852.972 15.8232 852.208 15.7297L852.591 15.6774C852.446 15.5736 852.289 15.4859 852.125 15.4158C848.518 14.882 843.347 15.7088 840.331 16.0437C843.347 15.2797 839.626 14.9972 839.668 14.2855C839.316 14.2855 843.026 14.5681 847.627 14.8402C847.306 14.7565 847.047 14.6204 846.985 14.3692C843.036 13.4273 840.134 14.6099 834.362 13.7936C834.745 13.7413 835.491 13.6262 835.232 13.3645C833.73 13.0832 832.178 13.2618 830.776 13.8773C830.299 13.1866 825.926 12.475 823.729 12.6529C822.064 13.23 820.286 13.3881 818.547 13.1134L820.102 12.7261C816.454 12.1924 816.495 12.9668 814.163 12.7261C814.692 12.7261 814.588 12.3912 813.842 12.2866C811.303 12.1825 808.765 12.5369 806.349 13.3331L806.95 12.632C803.302 12.8831 796.421 13.4378 796.39 12.4436C797.426 14.0134 788.441 12.8517 785.29 12.6738C786.327 12.6738 786.586 12.3703 786.71 12.2133C780.036 12.8936 773.238 11.6168 766.574 11.3238L765.538 10.1726C761.993 10.0574 760.884 12.1924 757.039 11.9726L758.667 11.3342C751.837 11.1982 749.091 10.9889 743.598 10.6016L743.733 9.86905C741.743 10.1412 739.276 10.0365 737.287 10.3086C732.841 8.37248 719.399 10.6749 711.202 8.4876L710.642 9.84812C707.533 9.74347 703.387 9.91091 701.988 8.80157H702.683C703.025 7.75502 699.574 8.68645 697.573 8.42481C696.081 8.50853 694.568 9.1574 695.853 9.3981C687.479 8.50853 675.022 8.97948 669.83 7.65036C661.425 7.94339 655.062 8.91669 645.994 8.69691L646.108 8.52946C642.999 8.29922 636.926 7.83874 636.957 6.68753C630.418 6.84451 626.231 8.39341 618.448 7.78641L620.137 7.36779C618.15 7.26612 616.157 7.39605 614.199 7.75502C613.515 7.75502 614.023 7.49338 614.116 7.33639C612.25 6.91777 611.142 7.52478 609.649 7.61896L610.261 7.24221C604.043 6.3631 594.249 7.85967 586.269 7.58757C587.741 7.48291 586.963 7.03289 586.373 6.84451C583.087 8.08991 574.102 7.73408 570.755 8.00619L572.828 7.51431C566.309 8.32015 567.2 6.13286 560.733 6.9387L564.443 7.70269C561.801 7.47245 558.909 7.58757 559.531 8.16317C556.474 7.72362 559.821 7.29453 555.199 7.11662C555.002 6.75032 558.536 6.88638 557.013 6.41543L550.629 5.43167H550.536C549.53 5.31023 548.515 5.31023 547.509 5.43167C548.069 7.03289 542.203 5.50493 545.437 7.07476C536.369 7.16895 528.71 6.0282 520.927 6.83405C517.735 5.28515 505.496 6.83405 506.273 4.74094C502.674 4.63385 499.08 5.04975 495.598 5.97588C496.567 6.03614 497.54 5.96575 498.49 5.76657C497.34 6.28984 492.044 6.3945 489.836 6.3945C492.728 5.93401 497.402 5.51539 499.661 4.74094C495.661 4.95025 490.095 5.7247 487.867 5.98634L486.831 4.93979C483.473 5.71424 484.002 4.12348 480.613 5.15957L481.255 5.46307C475.037 5.46307 475.037 6.50962 469.265 6.65614L469.513 6.24798C467.534 6.10146 464.611 7.09569 462.684 6.18519L466.425 6.11193C466.042 5.38981 463.171 5.06538 461.875 4.75141C457.896 4.98165 460.487 5.94448 458.497 6.0596C457.647 5.38981 458.279 5.70377 459.658 5.01305C455.212 5.28515 449.242 5.70377 446.102 6.60381C445.895 6.50962 446.102 6.35263 446.102 6.35263C441.48 6.35263 437.438 7.58757 434.599 7.06429L435.49 6.94917C431.78 6.03867 425.955 8.12131 425.126 6.44682C423.365 6.17472 429.096 6.44683 426.266 5.64098C420.763 5.24329 422.67 7.15848 417.841 6.80265C418.504 6.80265 418.286 6.73986 418.504 6.58288C415.001 6.68753 410.369 7.07476 406.534 7.36779C401.746 6.13286 392.025 8.29922 386.543 6.9387C388.294 7.43058 385.206 7.66083 385.206 7.912C385.206 7.912 385.424 7.75502 385.206 7.66083C384.163 7.64968 383.139 7.94808 382.263 8.519C380.625 8.10038 376.801 9.28298 375.754 9.00041C375.754 9.36671 374.148 9.33531 372.386 9.40857C375.91 8.8539 373.485 8.59226 375.06 7.96433C369.764 8.01665 369.06 9.80626 363.546 9.7644L360.437 9.22019C359.867 10.2667 354.748 10.0784 354.872 10.4551C353.918 10.1726 352.53 10.047 352.716 9.52369C350.519 9.86905 347.203 9.52369 346.312 10.1412L348.519 10.3086C341.679 10.2144 337.668 11.8784 332.393 11.418V9.86905C328.87 9.38764 325.968 10.9993 322.911 10.1935C323.947 10.6644 324.217 10.497 321.999 11.104C323.325 11.104 325.761 10.6435 327.968 10.5598L323.398 11.7319L330.652 10.9784C327.543 11.7215 327.771 11.554 329.077 12.1191C324.652 12.8099 324.248 11.5959 320.04 12.3808C318.496 12.2343 320.04 11.6063 318.289 11.3342C314.537 12.0459 311.034 10.5388 308.381 11.4703C307.5 11.3447 309.925 11.3552 309.708 10.9993C307.272 11.261 305.562 11.2714 304.826 11.7633L306.899 11.847C305.065 11.847 304.826 12.5273 301.272 12.318C299.272 12.7575 298.163 13.5738 300.36 13.4901C299.468 13.6262 297.489 13.2913 298.163 12.7994C292.711 13.0192 295.624 14.5681 290.328 14.0553C290.68 13.9925 291.064 13.8983 290.867 13.8146C289.759 13.7509 288.649 13.7964 287.55 13.9506C292.204 13.6052 286.048 12.768 291.561 12.8099C290.919 12.0145 287.416 12.8099 285.612 12.5796C282.949 13.2599 285.364 13.7727 284.027 14.2436C284.027 13.982 282.928 14.0343 281.612 13.982L282.918 14.5471C281.732 14.5703 280.548 14.6682 279.374 14.8402L281.602 14.4948C279.177 14.4948 275.446 13.6576 271.238 14.4425C272.357 14.139 274.575 13.5425 271.715 13.3436C267.082 13.9506 270.616 13.1343 267.974 12.7785C264.139 13.061 266.067 13.6576 262.947 13.825L264.077 14.6413C257.361 14.9239 250.604 16.1902 243.941 15.489C244.055 15.646 244.262 15.9495 245.35 15.9495C242.396 16.1065 234.427 17.0693 234.271 15.9495H233.981C232.758 16.5565 226.944 16.0646 223.69 15.8239L224.281 16.5356C222.685 16.1274 221.877 15.8658 220.882 15.6879C216.736 16.096 212.218 17.3728 206.963 16.8914L207.875 15.9809C206.103 15.9809 204.352 15.9809 202.352 16.2112L204.994 16.567C203.489 16.7874 201.96 16.7874 200.455 16.567C200.252 16.6311 200.06 16.7264 199.885 16.8496C199.518 16.6436 199.118 16.5021 198.704 16.4309C197.852 16.5876 196.989 16.6785 196.123 16.703H196.299C190.517 17.467 187.635 16.253 183.677 17.1531C183.604 17.3938 182.132 17.6554 178.495 18.1473C178.495 18.1473 177.583 18.2624 176.329 18.388L171.904 18.8066C168.795 19.0682 166.007 19.2357 167.126 18.8694C166.836 18.9427 165.167 18.6601 166.401 18.6287C166.68 18.6287 168.567 17.9694 168.753 18.0112L170.556 18.2624C171.769 18.2624 172.018 18.1264 173.821 18.0426C172.156 17.6302 170.418 17.6302 168.753 18.0426C167.893 17.6554 167.002 17.2996 166.38 17.0798H165.872C163.323 18.1264 158.763 18.9217 158.13 19.5706C153.539 19.4555 147.767 19.7276 143.736 19.2148C143.441 19.2431 143.152 19.31 142.875 19.4136C141.487 19.309 141.839 18.9845 141.424 18.7961L141.134 18.7438C140.702 18.6979 140.265 18.739 139.849 18.8648C139.433 18.9905 139.045 19.1984 138.709 19.4764C139.565 19.4864 140.42 19.5493 141.269 19.6648C138.025 19.4659 131.714 19.9997 130.905 19.0787C130.574 19.131 130.398 19.1834 130.19 19.2252C130.294 19.3299 130.356 19.4345 130.315 19.5287C130.035 19.5287 129.797 19.5287 129.527 19.5287C129.683 19.7904 131.538 19.8846 127.651 19.9788L128.418 20.2299C124.126 20.974 119.754 21.1254 115.422 20.6799L114.707 20.9102C114.829 20.8181 114.958 20.7342 115.091 20.659L114.054 20.5962L112.458 20.6799C112.707 20.6276 112.769 20.5753 112.966 20.5334C111.318 20.4288 109.629 20.3555 107.878 20.3555C107.488 20.4328 107.128 20.6217 106.841 20.8997L106.955 20.7427C105.66 20.7427 103.919 20.7427 102.157 20.7427C100.934 20.8997 99.6801 21.0776 98.3536 21.3811C99.193 21.2137 89.7104 21.7684 89.8762 21.6009C88.5186 21.7684 87.2957 21.8835 86.0935 21.9986C86.0159 22.1127 85.9124 22.2065 85.7916 22.272C85.6708 22.3376 85.5363 22.373 85.3992 22.3754C85.2541 22.2602 85.2541 22.1765 85.1919 22.0823C80.0101 22.5742 76.0616 22.5742 71.9473 22.7835C67.1314 23.0075 62.3359 23.5599 57.5938 24.4371C53.7385 25.0336 53.2722 24.4371 50.8575 24.1754L50.0802 25.0336L45.9348 24.4475C45.2444 24.4087 44.5525 24.4087 43.8621 24.4475C43.0745 24.6045 42.1936 24.751 41.1987 24.8557C37.5092 25.5987 33.9442 26.9488 28.7624 26.4569L29.6537 25.8604C27.0524 26.1639 21.3629 26.2057 21.8396 26.7813C21.5474 26.6342 21.2288 26.5482 20.9029 26.5284C20.577 26.5086 20.2506 26.5555 19.943 26.6662L19.8912 27.0848L13.528 26.9174C8.58461 27.6186 14.0151 27.5453 6.76062 28.2151C4.04538 28.2779 -1.18821 28.3198 0.635772 27.8279C1.47522 27.5977 0.304138 27.6918 0.355956 27.2732L0.376683 26.8023ZM858.094 15.9077C858.26 16.0751 858.664 16.2426 859.898 16.2112C860.094 16.1431 860.269 16.024 860.405 15.8658C860.359 15.8976 860.311 15.9256 860.26 15.9495C859.359 15.9495 858.675 15.9286 858.094 15.9077ZM843.699 10.1621C844.85 10.4447 846.684 10.6958 846.249 10.8423C847.026 10.8423 847.285 10.654 847.078 10.3819C845.824 10.2877 844.684 10.2877 843.699 10.1621ZM183.749 13.4273C183.542 13.6366 183.749 13.8041 184.267 13.846H184.609C185.436 13.5857 186.282 13.3898 187.138 13.2599C186.185 13.3436 185.003 13.4273 183.749 13.4273Z" fill="#AA0000"/>
</g>
<defs>
<clipPath id="clip0_135_46506">
<rect width="1030" height="29" fill="white"/>
</clipPath>
</defs>
</svg>
