<svg width="1238" height="5" viewBox="0 0 1238 5" fill="none" xmlns="http://www.w3.org/2000/svg">
<g clip-path="url(#clip0_248_323)">
<path d="M889.106 0.321472H889.259C890.15 0.283641 889.641 0.289947 889.106 0.321472Z" fill="#63504B"/>
<path d="M576.851 0.649414C580.389 1.04664 571.098 1.16013 576.418 1.60149C575.926 1.42495 581.263 0.907926 576.851 0.649414Z" fill="#63504B"/>
<path d="M780.422 1.22323C779.715 1.16362 779.003 1.15096 778.293 1.1854C778.398 1.2095 778.506 1.22845 778.615 1.24215C779.212 1.16382 779.822 1.15744 780.422 1.22323Z" fill="#63504B"/>
<path d="M748.867 1.22314C749.057 1.25985 749.249 1.28931 749.444 1.31142H750.445L748.867 1.22314Z" fill="#63504B"/>
<path d="M138.025 4.37574C137.517 4.29241 137.026 4.15881 136.566 3.97852C137.058 4.26855 132.417 4.37574 138.025 4.37574Z" fill="#63504B"/>
<path d="M759.244 4.70987C758.317 4.55525 757.375 4.45407 756.427 4.40723C756.227 4.42904 756.03 4.46709 755.841 4.52072L759.244 4.70987Z" fill="#63504B"/>
<path d="M259.581 1.29866C259.903 1.29866 260.107 1.29866 260.531 1.29866C260.215 1.27805 259.897 1.27805 259.581 1.29866Z" fill="#63504B"/>
<path d="M870.304 4.18652C870.066 4.18652 869.846 4.18652 869.642 4.18652C868.089 4.29371 869.141 4.25588 870.304 4.18652Z" fill="#63504B"/>
<path d="M754.475 0.82603L755.205 1.32414C756.817 1.22325 757.199 0.674706 754.475 0.82603Z" fill="#63504B"/>
<path d="M660.555 1.33054C658.821 1.02328 657.023 0.967619 655.26 1.16661C657.365 1.22335 659.478 1.3999 660.555 1.33054Z" fill="#63504B"/>
<path d="M380.746 0.359375L377.191 0.498089L378.862 0.523309L380.746 0.359375Z" fill="#63504B"/>
<path d="M1237.58 0.570624C1238.12 1.01702 1239.06 1.29172 1231.75 1.60076L1227.72 1.32224L1226.08 1.5359H1230.32C1228.42 1.67337 1226.49 1.63834 1224.62 1.43288C1223.96 1.57873 1223.23 1.66059 1222.49 1.67325L1217.54 1.26883C1216.94 1.44433 1219.78 1.61602 1216.43 1.7114C1214.1 1.51301 1218.68 1.32987 1214.8 1.19252C1212.37 1.39473 1213.1 1.57405 1210.23 1.3871C1209.82 1.50156 1210.43 1.57405 1211.56 1.62365C1209.01 1.4863 1204.83 1.56642 1203.51 1.32987C1200.97 1.57787 1194.94 1.26501 1195.18 1.68469C1192.94 1.48913 1190.67 1.37304 1188.4 1.3375C1192.64 1.84112 1179.66 1.36802 1180.76 1.90598C1177.6 1.45578 1169.36 1.70759 1163.79 1.45578C1164.25 1.51716 1164.73 1.54549 1165.21 1.53971C1163.17 1.57871 1161.14 1.66531 1159.12 1.79915C1158.72 1.41762 1159.03 1.761 1156.39 1.52827C1152.53 1.9098 1153.52 1.54734 1152.3 1.9098C1152.5 1.60839 1145.6 1.60839 1146.91 1.35658C1143.96 1.57787 1144.37 1.46341 1142.85 1.77245C1142.33 1.30698 1140.1 1.69614 1137.66 1.39092C1133.42 1.62365 1136.55 1.82968 1131.86 1.68851C1129.63 1.82968 1133.81 1.99755 1133.81 1.99755C1129.03 1.99755 1131.57 1.65036 1130.55 1.44815C1124.85 1.34895 1127.91 1.70759 1125.97 1.89072C1122.41 1.79534 1119.68 1.47104 1117.02 1.4863C1116.83 1.54353 1116.31 1.56642 1116.92 1.63891C1114.49 1.45959 1110.56 1.50156 1106.89 1.46341C1105.14 1.55116 1103.38 1.6351 1102.12 1.68469C1100.42 1.74955 1097.73 1.73429 1095.33 1.68469C1095.17 1.7114 1095.06 1.73811 1094.78 1.78008C1087.95 1.87164 1087.15 1.6122 1080.36 1.70759C1078.83 1.52827 1080.87 1.44051 1079.33 1.26119C1069.65 0.936894 1071.7 2.07767 1064.61 1.64273C1062.76 1.42525 1062.06 1.01702 1056.97 1.23067L1058.67 1.6122C1052.06 1.65036 1054.89 1.08569 1047.97 1.33369C1049.2 1.47867 1053.16 1.45578 1052.21 1.49774C1047.72 1.78771 1049.04 1.29172 1045.58 1.29172L1044.87 1.61602C1037.84 1.5626 1030.08 1.32987 1022.29 1.27264C1022.73 1.36802 1024.06 1.46722 1022.23 1.56642C1012.41 1.40618 1001.25 1.60839 991.773 1.79915L988.15 1.52064C987.302 1.52064 986.589 1.64654 987.497 1.69996C983.806 1.80678 987.31 1.52445 985.529 1.41381C983.433 1.39473 982.754 1.57405 984.086 1.65799C977.57 1.42144 965.513 1.14674 958.632 1.44815L959.973 1.52827C954.628 1.64273 953.941 0.955971 948.943 1.21541L949.893 1.26501C946.797 1.29935 944.098 1.26501 941.621 1.20778L937.294 1.24975L939.305 1.14674L937.175 1.08569C934.706 1.12003 932.144 1.24212 929.335 1.2383L931.159 1.40999L926.62 1.51682C926.17 1.162 920.808 1.4367 923.303 1.02465C914.818 0.845327 909.439 1.31079 901.743 1.3375C903.075 1.3375 902.592 1.26501 902.829 1.20778C899.526 1.14407 896.218 1.24129 892.962 1.49774C893.513 1.3871 894.582 1.34895 894.599 1.25356C889.296 1.25356 891.384 1.45959 885.529 1.56642C887.141 1.41762 886.641 1.34132 885.046 1.30316C885.292 1.43288 883.943 1.52445 882.865 1.5626C887.269 0.852957 876.306 1.27264 879.081 0.711791C878.792 0.864403 869.688 1.17344 872.293 1.47485L873.888 1.42144C874.066 1.61602 871.903 1.53971 870.274 1.55497C870.868 1.55066 871.459 1.51089 872.03 1.4367C863.741 1.67325 855.061 1.4367 845.728 1.63128C846.576 1.55879 850.293 1.43288 847.9 1.37184C838.652 1.26883 833.273 1.63891 823.939 1.81441C823.524 1.36421 834.036 1.74955 834.384 1.32224C824.559 1.42144 814.445 1.57787 803.517 1.8106C799.699 1.15055 792.852 2.08149 786.081 1.56642C786.718 1.78771 783.349 1.86783 779.667 1.87165C780.931 1.69233 777.054 1.68851 778.131 1.55879C774.907 1.761 765.599 1.84494 765.964 1.40999C765.116 1.82968 759.049 1.40999 756.402 1.68851C752.329 1.53208 747.68 1.77626 742.581 1.64654C744.371 1.91361 737.49 1.77245 735.632 1.88309C736.166 1.88309 737.227 1.82968 736.972 1.79152C735.445 1.56642 731.092 1.99373 728.216 1.85638C726.918 1.761 728.539 1.61602 726.426 1.59313C726.375 1.78008 718.637 1.99755 715.761 1.76863C716.499 1.77122 717.231 1.71437 717.924 1.60076C704.349 1.92506 689.84 1.53208 675.968 1.9098L678.429 1.59694C669.774 1.16963 672.786 2.03189 665.905 2.00136C647.112 1.84875 627.538 1.44433 609.194 1.64654C607.854 1.73811 609.975 1.761 610.204 1.89072C608.609 1.85257 608.151 1.58931 605.962 1.75718L606.445 1.92506C598.071 1.46722 582.256 2.23791 576.053 1.51682C568.035 1.78771 562.385 1.32224 552.653 1.73048C549.581 1.57787 556.225 1.4367 552.076 1.39473L543.074 1.65036L543.557 1.62746C534.861 2.1349 520.564 1.05898 509.619 1.42525L510.086 1.39855C510.34 1.28027 508.083 1.13911 506.318 1.17726C505.708 1.2612 506.895 1.30698 507.948 1.40618C498.216 1.60457 496.069 1.6122 488.382 1.65417C491.7 1.47867 485.294 1.50156 484.988 1.27264C482.969 1.42907 486.159 1.52445 481.645 1.65417C475.231 1.67706 469.326 1.46722 464.006 1.37947C461.842 1.59694 459.008 1.5359 458.873 1.80678C451.627 1.80678 447.597 1.92887 438.705 1.92506L438.476 1.83349C436.083 2.16924 430.763 1.6618 429.143 1.85638C429.389 1.73811 430.339 1.68851 430.101 1.59694L426.054 1.70377C427.963 1.60457 429.058 1.28409 425.732 1.24975C422.279 1.4863 426.682 1.40999 425.002 1.60076L423.958 1.29172C421.345 1.32606 420.616 1.67325 423.806 1.77245C414.905 1.77245 406.124 1.91743 398.199 1.86401L399.048 1.6618C394.74 1.76188 390.423 1.72746 386.126 1.55879C386.007 1.61602 384.929 1.72666 385.625 1.79152C380.399 2.06622 385.074 1.45578 379.363 1.75718C380.78 1.68088 382.571 1.64273 382.808 1.52445L372.126 1.77245C372.007 1.61983 365.517 1.28409 361.003 1.41762C360.825 1.50156 362.123 1.61602 363.268 1.63128L360.383 1.70759L358.152 1.35658L353.969 1.66562L353.893 1.37184C350.813 1.42907 349.582 1.80678 347.105 1.78008C337.772 1.59313 339.664 1.49393 333.038 1.21541C332.291 1.77626 322.483 1.19252 320.794 1.59694C311.936 1.17344 299.108 1.43288 287.501 1.31079L288.392 1.26883C283.428 1.00557 282.741 1.69232 277.362 1.58168L278.702 1.49774C271.838 1.19633 259.781 1.47104 253.248 1.70759C254.589 1.62365 253.91 1.44433 251.806 1.46341C250.033 1.57405 253.503 1.84494 249.838 1.74955C250.754 1.69614 250.033 1.57405 249.193 1.57024L245.57 1.84875C236.084 1.65799 224.935 1.46722 215.102 1.61983C213.286 1.52064 214.618 1.41762 215.051 1.32224C207.253 1.37947 199.507 1.61602 192.465 1.66562L191.752 1.34132C188.307 1.34132 189.622 1.83731 185.134 1.55116C184.133 1.50538 188.095 1.52827 189.325 1.38328C182.41 1.1391 185.244 1.69996 178.635 1.66562L180.332 1.28409C175.241 1.06661 174.554 1.47485 172.696 1.69233C165.577 2.12346 167.605 0.986493 157.958 1.31079C156.431 1.49393 158.467 1.57787 156.931 1.75718C150.143 1.66562 149.295 1.92506 142.507 1.82968C138.867 1.28409 145.978 1.82968 142.015 1.31843L147.208 1.44051C142.728 1.15437 151.272 1.36802 150.602 1.05898C147.25 0.967417 142.117 1.24212 137.773 1.34895C137.773 1.10477 142.864 1.31842 140.836 0.990308L138.596 1.08951C139.24 0.968927 139.935 0.914194 140.632 0.929263C139.826 0.700345 137.994 0.929263 135.855 0.929263C135.711 1.05898 135.813 1.2383 136.526 1.41381C136.35 1.36887 136.157 1.33911 135.957 1.32606C131.571 1.68088 124.164 1.41381 120.396 1.70759C120.999 1.6351 120.49 1.61602 120.286 1.55497C117.63 1.55497 114.907 1.86401 111.343 1.9594C109.4 1.78008 112.463 1.41762 106.762 1.52064C105.752 1.72285 108.28 2.07386 103.504 2.06623C103.504 2.06623 107.678 1.90217 105.447 1.75718C100.755 1.89835 103.928 1.69232 99.6601 1.46341C97.2081 1.74955 94.9766 1.36039 94.4591 1.84494C92.9403 1.53208 93.3476 1.65036 90.4034 1.42525C91.71 1.67706 84.8121 1.67706 85.0072 1.97847C83.7939 1.6351 89.9962 1.55497 86.1441 1.21541C83.4969 1.44433 78.5929 1.53208 78.1941 1.90217C76.1775 1.76872 74.147 1.68212 72.1106 1.64273C72.59 1.6504 73.0689 1.62203 73.5275 1.55879C67.9362 1.8106 59.6892 1.55879 56.5583 2.009C57.6868 1.47104 44.6799 1.94414 48.9222 1.44051C46.6429 1.47631 44.3734 1.59239 42.1345 1.78771C42.3891 1.36802 36.3395 1.68088 33.8027 1.43288C32.496 1.66943 28.3046 1.58931 25.7677 1.72666C26.8962 1.67706 27.4647 1.60457 27.0998 1.49011C24.2405 1.6618 24.9532 1.49011 22.5181 1.29553C18.6492 1.42525 23.2308 1.61983 20.8891 1.81441C17.5377 1.71903 20.3885 1.54734 19.7776 1.37565L14.7632 1.72666C14.0215 1.71606 13.2931 1.63547 12.6251 1.49011C10.7636 1.69256 8.83116 1.72628 6.94041 1.58931H11.1827L9.54518 1.37565L4.45442 1.64654C-1.84115 1.30698 0.721197 0.845326 -0.0254477 0.437088L2.95265 0.360783C2.85083 0.20817 1.42542 0.131864 0.118791 0.124233C-1.10299 0.0212198 4.28473 -0.367942 7.53433 -0.425171C16.282 -0.394649 9.35004 0.093711 15.3486 0.20054L23.0781 -0.0550861L23.1714 0.0937108C23.9323 0.156872 24.7174 0.122496 25.4368 -0.00548738C24.9108 0.215801 31.7324 0.0670037 34.8802 0.101341L33.7517 -0.0932393C42.5163 -0.551076 47.5816 0.398935 54.5051 0.154756L59.3837 -0.177177L60.3934 0.112787C63.2527 -0.0589019 63.7872 -0.268743 68.4368 -0.184807C84.8969 0.322629 102.587 -0.295451 119.268 0.025035C118.72 -0.055739 118.148 -0.0982021 117.571 -0.10087C132.207 0.620223 140.48 -0.84104 153.656 -0.276374L152.748 -0.169546C159.46 -0.226775 151.832 -0.0627168 156.719 0.0975261C157.644 -0.253482 165.204 -0.177177 169.115 -0.303082C168.513 -0.234406 167.181 -0.242036 166.061 -0.188622C166.98 0.00651872 168.002 0.0831207 169.013 0.0326658C173.256 -0.470955 182.538 -0.417541 189.376 -0.570153C190.225 -0.337419 196.079 -0.135208 199.134 0.238692C199.838 0.154755 201.628 0.128048 202.773 -0.0436406C205.242 0.105156 206.558 -0.161915 208.314 -0.295451C206.15 -0.295451 204.233 -0.0512712 202.773 -0.0436406C202.824 -0.0436406 202.884 -0.295451 202.926 -0.303082C202.706 -0.303082 202.307 -0.284005 201.976 -0.276374C200.491 -0.276374 199.71 -0.249667 200.067 -0.230591C197.326 -0.451879 200.254 -0.40991 200.067 -0.676982C202.298 -0.676982 206.914 -0.760919 207.431 -0.558707C208.764 -0.558707 209.654 -0.524369 211.046 -0.486216C211.961 -0.534343 212.884 -0.547107 213.803 -0.52437L213.345 -0.497662C213.529 -0.459445 213.723 -0.431266 213.922 -0.413725C218.283 -0.295451 224.426 -0.699873 228.024 -0.883008C224.46 -0.543446 228.94 -0.501477 228.94 -0.257298C229.356 -0.276374 224.893 -0.291636 219.352 -0.295451C219.751 -0.272559 220.065 -0.226775 220.158 -0.139023C224.961 0.124233 228.355 -0.367941 235.329 -0.184807C234.879 -0.158099 233.98 -0.104686 234.311 -0.0131181C236.101 0.0617182 237.906 -0.030503 239.614 -0.284005C240.233 -0.0436403 245.553 0.128048 248.141 0.0212196C250.14 -0.222876 252.217 -0.313172 254.283 -0.245852L252.451 -0.0779784C256.846 0.0517421 256.761 -0.230591 259.569 -0.196253C258.933 -0.169546 259.069 -0.0665324 259.968 -0.0436406C262.98 -0.0520696 265.979 -0.228931 268.894 -0.570153L268.215 -0.303082C272.576 -0.463325 280.798 -0.787626 280.891 -0.425171C279.517 -0.978391 290.402 -0.71895 294.195 -0.707504C292.888 -0.707504 292.651 -0.573968 292.498 -0.512923C300.465 -0.894454 308.619 -0.512923 316.688 -0.532L317.977 -0.131393C322.22 -0.131393 323.45 -0.940238 328.074 -0.924977L326.377 -0.730396C334.573 -0.795256 337.882 -0.760918 344.509 -0.692243L344.381 -0.421356C346.757 -0.547261 349.718 -0.547261 352.111 -0.673166C357.524 -0.0169333 373.585 -1.02036 383.504 -0.291636L384.123 -0.799072C387.916 -0.799072 392.769 -0.886824 394.551 -0.509108H393.702C393.329 -0.127577 397.495 -0.509108 399.854 -0.413725C401.644 -0.459509 403.434 -0.707504 401.898 -0.795256C411.961 -0.53963 426.911 -0.795256 433.181 -0.348865C443.269 -0.512923 450.88 -0.913531 461.774 -0.863932L461.647 -0.802887C465.321 -0.734211 472.677 -0.600676 472.677 -0.177177C480.517 -0.276375 485.523 -0.852486 494.881 -0.669351L492.853 -0.505293C495.235 -0.478052 497.618 -0.53418 499.98 -0.673166C500.829 -0.673166 500.201 -0.581599 500.091 -0.52437C502.331 -0.379388 503.654 -0.604491 505.445 -0.646459L504.715 -0.505293C512.173 -0.215329 523.933 -0.783811 533.563 -0.715135C531.789 -0.673167 532.714 -0.512923 533.444 -0.444248C537.372 -0.913531 548.164 -0.802886 552.186 -0.909715L549.709 -0.72658C557.531 -1.03562 556.496 -0.234406 564.243 -0.543446L559.78 -0.814332C562.945 -0.734211 566.423 -0.78381 565.668 -0.993652C569.342 -0.837225 565.329 -0.676982 570.878 -0.612121C571.115 -0.482401 566.882 -0.524369 568.706 -0.35268L576.342 -0.00548738H576.452C577.661 0.0397394 578.875 0.0397394 580.084 -0.00548738C579.413 -0.58923 586.456 -0.0360097 582.629 -0.604491C593.532 -0.638828 602.746 -0.257298 612.079 -0.543446C615.906 0.0212198 630.618 -0.524369 629.676 0.219616C633.971 0.260673 638.265 0.113728 642.496 -0.219144C641.337 -0.242435 640.176 -0.218171 639.026 -0.146653C640.409 -0.333604 646.764 -0.364127 649.42 -0.360311C645.941 -0.196253 640.333 -0.0512708 637.618 0.227247C642.411 0.158571 649.106 -0.116132 651.778 -0.207699L653 0.173832C657.047 -0.104686 656.394 0.475242 660.45 0.105157L659.678 -0.00548738C667.102 0.0212197 667.195 -0.35268 674.101 -0.387018L673.805 -0.238221C676.172 -0.180992 679.693 -0.532 682.001 -0.192437H677.495C677.953 0.0708189 681.398 0.189093 682.951 0.318814C687.728 0.250138 684.648 -0.112316 687.023 -0.146653C688.042 0.101342 687.278 -0.0131176 685.615 0.234877C690.952 0.147125 698.13 0.0402967 701.922 -0.276374C702.16 -0.238221 701.922 -0.180991 701.922 -0.180991C707.463 -0.139023 712.35 -0.562522 715.744 -0.371757L714.675 -0.337419C719.112 0.0441121 726.163 -0.676981 727.079 -0.0589015C729.183 0.0555578 722.302 -0.0817935 725.679 0.219616C732.28 0.418012 730.04 -0.299266 735.861 -0.123762C735.063 -0.142838 735.318 -0.104685 735.012 -0.0512707C739.255 -0.0512707 744.804 -0.123762 749.436 -0.188622C755.129 0.318814 766.864 -0.310712 773.405 0.276845C771.318 0.0670034 775.043 0.032666 775.051 -0.0589015C775.051 -0.0589015 774.78 -0.00548726 775.051 0.0326658C776.267 0.0556644 777.48 -0.0339428 778.615 -0.230591C780.566 -0.0512711 785.216 -0.425171 786.455 -0.306896C786.455 -0.436617 788.397 -0.40228 790.519 -0.398464C786.276 -0.253483 789.153 -0.119947 787.235 0.08608C793.59 0.147125 794.523 -0.490032 801.141 -0.387018L804.79 -0.139023C805.536 -0.520554 811.671 -0.364127 811.526 -0.520554C812.663 -0.40228 814.318 -0.333604 814.072 -0.139023C816.728 -0.226775 820.681 -0.0360098 821.784 -0.257298L819.103 -0.367942C827.299 -0.226776 832.195 -0.768549 838.499 -0.516739L838.372 0.0479267C842.563 0.276845 846.135 -0.261113 849.758 0.0784491C848.494 -0.108501 848.214 -0.0512713 850.904 -0.238221C849.317 -0.276375 846.373 -0.131393 843.717 -0.135208L849.359 -0.467139L840.569 -0.306896C844.336 -0.528184 844.065 -0.470955 842.521 -0.688427C847.866 -0.867747 848.29 -0.417541 853.373 -0.635013C855.222 -0.558707 853.322 -0.356496 855.426 -0.253482C859.965 -0.451878 864.063 0.150941 867.304 -0.146653C868.356 -0.0856085 865.438 -0.127577 865.692 0.00214338C868.619 -0.0512709 870.724 -0.0283793 871.58 -0.196253L869.035 -0.257298C871.241 -0.257298 871.58 -0.47477 875.823 -0.341234C878.249 -0.470955 879.632 -0.749472 876.985 -0.753287C878.054 -0.787625 880.379 -0.638828 879.531 -0.467139C886.089 -0.467139 882.67 -1.06996 888.999 -0.802887C888.567 -0.78381 888.151 -0.757103 888.346 -0.722765C889.668 -0.684756 890.995 -0.684756 892.317 -0.722765C886.726 -0.676981 894.065 -0.272559 887.455 -0.375572C888.185 -0.0741627 892.478 -0.310712 894.582 -0.196253C897.806 -0.398464 894.939 -0.627383 896.568 -0.77618C896.568 -0.680797 897.866 -0.680797 899.444 -0.642644L897.917 -0.867747C899.249 -0.867747 900.564 -0.867747 902.159 -0.921161L899.469 -0.829594C902.38 -0.787626 906.809 -0.425171 911.908 -0.646459C910.55 -0.554892 907.861 -0.367942 911.271 -0.264928C916.871 -0.40991 912.578 -0.169545 915.743 0.00214338C920.358 -0.039825 918.068 -0.284005 921.818 -0.291636L920.511 -0.604491C928.58 -0.604491 936.734 -0.955499 944.709 -0.604491C944.574 -0.66172 944.336 -0.779995 943.012 -0.795256C946.567 -0.795256 956.18 -1.02799 956.308 -0.604491H956.647C958.149 -0.802887 965.132 -0.532 968.992 -0.390834L968.313 -0.657905C970.205 -0.482401 971.173 -0.375572 972.344 -0.295451C977.434 -0.371757 982.822 -0.768549 989.109 -0.501477L987.955 -0.184807C990.093 -0.184807 992.198 -0.142838 994.599 -0.184807L991.451 -0.356496C993.268 -0.412597 995.092 -0.388316 996.898 -0.284005C997.138 -0.302934 997.371 -0.334966 997.594 -0.379387C998.039 -0.295086 998.507 -0.237366 998.985 -0.207699C1000.17 -0.249667 1001.2 -0.268744 1002.1 -0.261113L1001.89 -0.280189C1008.86 -0.459509 1012.26 0.0288503 1017.05 -0.230591C1017.15 -0.318343 1018.92 -0.390833 1023.29 -0.505293C1023.5 -0.528184 1039.7 -0.795256 1036.96 -0.573968C1037.32 -0.593045 1039.31 -0.463324 1037.81 -0.47477C1037.48 -0.47477 1035.17 -0.272559 1034.95 -0.28782C1034.95 -0.28782 1032.75 -0.421356 1032.8 -0.413725C1031.35 -0.413725 1031.05 -0.387018 1028.88 -0.390834C1030.88 -0.206828 1032.93 -0.172025 1034.95 -0.28782C1035.96 -0.135208 1037.01 0.0135893 1037.75 0.0937108H1038.4C1041.53 -0.257298 1047.03 -0.455694 1047.82 -0.669351C1053.33 -0.547261 1060.29 -0.543446 1065.07 -0.28782C1065.42 -0.293405 1065.77 -0.312553 1066.11 -0.34505C1067.8 -0.284005 1067.32 -0.169545 1067.8 -0.0932393C1067.9 -0.0932393 1068.06 -0.0932395 1068.15 -0.0703477C1069.16 -0.0180765 1070.18 -0.0961587 1071.1 -0.295451C1069.98 -0.34505 1068.65 -0.337419 1068.05 -0.40991C1071.92 -0.280189 1079.52 -0.360311 1080.45 -0.00548738C1080.85 -0.00548738 1081.07 -0.0321948 1081.29 -0.047456C1081.18 -0.0856091 1081.11 -0.123762 1081.16 -0.1581H1082.11C1081.94 -0.257298 1079.72 -0.325973 1084.38 -0.284005L1083.47 -0.390834C1088.67 -0.58264 1093.9 -0.555816 1099.09 -0.310712L1099.94 -0.383203C1099.78 -0.35128 1099.62 -0.32326 1099.45 -0.299266L1100.66 -0.253482H1102.58C1102.29 -0.253482 1102.2 -0.219145 1101.96 -0.207699C1103.93 -0.135208 1105.96 -0.0779784 1108.05 -0.0436406C1108.5 -0.0604562 1108.93 -0.121713 1109.32 -0.22296L1109.18 -0.16573C1110.72 -0.123762 1112.81 -0.0894238 1114.92 -0.0550861C1116.4 -0.0894238 1117.91 -0.131392 1119.53 -0.211514C1118.52 -0.169545 1129.91 -0.169546 1129.71 -0.112316C1131.35 -0.142839 1132.82 -0.1581 1134.28 -0.173361C1134.52 -0.259752 1134.82 -0.30444 1135.13 -0.299266C1135.29 -0.253483 1135.29 -0.22296 1135.35 -0.188622C1147.94 -0.291635 1154.17 0.147125 1168.63 -0.295451C1173.3 -0.394649 1173.81 -0.173361 1176.66 -0.00167197L1177.68 -0.28782L1182.56 0.0441121C1183.41 0.0746346 1184.2 0.0822645 1185 0.0822645C1185.96 0.0517421 1187.03 0.0212195 1188.22 0.0135889C1192.71 -0.146654 1197.08 -0.532 1203.31 -0.203884L1202.18 -0.00930279C1205.33 -0.0474558 1212.15 0.105157 1211.63 -0.116131C1212.34 0.00994611 1213.12 0.0442784 1213.88 -0.0169336L1213.98 -0.169546L1221.71 0.0898954C1227.7 -0.0169333 1221.2 -0.154284 1229.94 -0.184807C1233.2 -0.123762 1239.47 0.00977421 1237.23 0.135679C1236.21 0.192909 1237.61 0.196724 1237.52 0.345521L1237.58 0.570624ZM206.821 -0.573968C206.118 -0.677472 205.368 -0.701066 204.64 -0.642644C204.426 -0.617293 204.227 -0.571775 204.055 -0.509108L204.233 -0.53963C205.302 -0.558707 206.125 -0.566338 206.821 -0.573968ZM224.469 1.21541C223.069 1.13911 220.863 1.08569 221.372 1.02083C220.43 1.02083 220.074 1.1124 220.404 1.20397C221.906 1.20397 223.332 1.20397 224.469 1.21541ZM1016.93 1.16581C1017.19 1.09332 1016.93 1.02846 1016.34 1.00557H1015.95C1014.93 1.08887 1013.91 1.14619 1012.88 1.17726C1013.99 1.16581 1015.4 1.16581 1016.91 1.16581H1016.93Z" fill="#CF2435"/>
</g>
<defs>
<clipPath id="clip0_248_323">
<rect width="1238" height="5" fill="white"/>
</clipPath>
</defs>
</svg>
