<svg width="19" height="19" viewBox="0 0 19 19" fill="none" xmlns="http://www.w3.org/2000/svg">
<path d="M4.77214 18.0021H0.902144V5.97482H4.77214V18.0021ZM2.97214 4.15028C2.6965 4.16192 2.42145 4.11608 2.16449 4.01565C1.90753 3.91522 1.67428 3.76242 1.47958 3.56695C1.28488 3.37148 1.133 3.13763 1.03358 2.88028C0.934171 2.62292 0.889409 2.34769 0.902144 2.0721C0.891665 1.79605 0.938589 1.52083 1.03995 1.26386C1.14131 1.00688 1.2949 0.773738 1.491 0.579175C1.6871 0.384612 1.92144 0.232864 2.17921 0.133531C2.43698 0.0341985 2.71255 -0.0105572 2.98851 0.0020952C3.26343 -0.0094718 3.53776 0.0361557 3.79414 0.13609C4.05052 0.236024 4.28337 0.38809 4.47794 0.582663C4.67251 0.777236 4.82458 1.01008 4.92451 1.26646C5.02445 1.52284 5.07007 1.79717 5.05851 2.0721C5.07015 2.34881 5.02409 2.62493 4.92325 2.88288C4.82241 3.14083 4.669 3.37498 4.47277 3.57044C4.27655 3.76589 4.0418 3.91838 3.78345 4.01821C3.5251 4.11803 3.24881 4.16301 2.97214 4.15028ZM18.9021 18.0021H15.0321V11.4566C15.0321 9.88573 14.4758 8.80573 13.0767 8.80573C12.6381 8.81032 12.2117 8.95035 11.8558 9.20667C11.4999 9.46298 11.2319 9.82304 11.0885 10.2375C10.9861 10.543 10.9417 10.8649 10.9576 11.1866V18.0021H7.0876V5.97482H10.9576V7.65209C11.3132 7.04894 11.8243 6.55233 12.4374 6.21412C13.0505 5.8759 13.7432 5.70849 14.4431 5.72937C16.9794 5.72937 18.9021 7.36573 18.9021 10.9739V18.0021Z" fill="#EBDED2"/>
</svg>
