<svg width="24" height="18" viewBox="0 0 24 18" fill="none" xmlns="http://www.w3.org/2000/svg">
<path d="M7.86614 17.9997C9.56945 18.0105 11.2579 17.6823 12.8331 17.0342C14.4083 16.3861 15.8389 15.4311 17.0414 14.2248C18.244 13.0184 19.1946 11.5849 19.8378 10.0077C20.4809 8.43047 20.8039 6.74103 20.7879 5.03777C20.7879 4.83649 20.7879 4.64528 20.7879 4.44401C21.6702 3.81581 22.4336 3.03542 23.0421 2.13944C22.2139 2.50662 21.3353 2.74748 20.4356 2.85395C21.391 2.28897 22.1069 1.39416 22.4484 0.338042C21.5578 0.865689 20.5848 1.2399 19.5702 1.44504C18.9486 0.777816 18.1405 0.313283 17.2511 0.111978C16.3617 -0.0893262 15.4323 -0.0180662 14.5841 0.316472C13.7358 0.65101 13.0079 1.23331 12.4953 1.9875C11.9828 2.74168 11.7093 3.63277 11.7105 4.54465C11.7129 4.883 11.75 5.22021 11.8212 5.55101C10.015 5.46702 8.24673 5.00434 6.63093 4.19297C5.01513 3.3816 3.58791 2.23967 2.44184 0.841224C2.03616 1.53392 1.82414 2.32293 1.82796 3.12567C1.82746 3.87168 2.01086 4.60631 2.36192 5.26455C2.71298 5.9228 3.22089 6.48436 3.84068 6.89954C3.121 6.87944 2.41678 6.68612 1.7877 6.33598V6.39636C1.7899 7.44389 2.15359 8.45857 2.81733 9.26899C3.48107 10.0794 4.40418 10.6359 5.43074 10.8445C4.77449 11.0228 4.08641 11.0503 3.41801 10.925C3.70106 11.8261 4.25874 12.6161 5.01303 13.1845C5.76731 13.7529 6.68044 14.0713 7.62462 14.095C6.01903 15.3598 4.03286 16.0443 1.98897 16.0373C1.62545 16.0312 1.26257 16.0043 0.9021 15.9568C2.98268 17.2811 5.39991 17.9797 7.86614 17.9696" fill="#EBDED2"/>
</svg>
