<svg width="1168" height="872" viewBox="0 0 1168 872" fill="none" xmlns="http://www.w3.org/2000/svg">
<g opacity="0.8" filter="url(#filter0_f_14_44)">
<g filter="url(#filter1_f_14_44)">
<path d="M533.17 416.55C696.848 346.415 736.886 178.858 622.597 42.302L574.854 -14.7432C460.566 -151.299 235.23 -205.144 71.5524 -135.009L-104.954 -59.3764C-268.631 10.759 -308.669 178.315 -194.381 314.872L-146.638 371.917C-32.3499 508.473 192.986 562.318 356.664 492.182L533.17 416.55Z" fill="url(#paint0_radial_14_44)"/>
</g>
<g filter="url(#filter2_f_14_44)">
<path d="M-13.1662 342.979C75.4131 305.023 97.0811 214.345 35.2305 140.443C-26.6202 66.5417 -148.568 37.4021 -237.147 75.358L-289.613 97.8394C-378.192 135.795 -399.86 226.474 -338.009 300.375C-276.159 374.277 -154.211 403.417 -65.632 365.461L-13.1662 342.979Z" fill="url(#paint1_radial_14_44)"/>
</g>
<g style="mix-blend-mode:color-dodge" filter="url(#filter3_f_14_44)">
<path d="M647.021 386.09C785.935 423.304 952.596 350.177 1019.27 222.754C1085.94 95.3322 1027.38 -38.1321 888.468 -75.3464L747.972 -112.985C609.059 -150.199 442.397 -77.0714 375.724 50.3507C309.05 177.773 367.612 311.237 506.525 348.452L647.021 386.09Z" fill="url(#paint2_radial_14_44)" fill-opacity="0.8"/>
</g>
<g style="mix-blend-mode:screen" filter="url(#filter4_f_14_44)">
<path d="M-36.4455 205.63C-130.983 289.448 -156.083 384.135 -156.815 421.001C-151.959 495.777 -137.876 611.67 -120.39 477.033C-98.5333 308.737 -6.15097 281.736 157.136 132.183C287.766 12.5396 219.52 -17.8485 169.068 -18.0872L81.9252 25.6524C81.8589 50.7207 58.0919 121.812 -36.4455 205.63Z" fill="url(#paint3_radial_14_44)"/>
</g>
<g style="mix-blend-mode:screen" filter="url(#filter5_f_14_44)">
<path d="M179.554 126.63C85.017 210.448 59.9175 305.135 59.1849 342.001C64.0409 416.777 78.1244 532.67 95.6099 398.033C117.467 229.737 209.849 202.736 373.136 53.1826C503.766 -66.4604 435.52 -96.8485 385.068 -97.0872L297.925 -53.3476C297.859 -28.2793 274.092 42.8119 179.554 126.63Z" fill="url(#paint4_radial_14_44)"/>
</g>
<g style="mix-blend-mode:screen">
<path d="M-363.446 489.263C-457.983 573.081 -483.083 667.768 -483.815 704.634C-478.959 779.41 -464.876 895.303 -447.39 760.666C-425.533 592.369 -333.151 565.369 -169.864 415.815C-39.2338 296.172 -107.48 265.784 -157.932 265.546L-245.075 309.285C-245.141 334.354 -268.908 405.445 -363.446 489.263Z" fill="url(#paint5_radial_14_44)"/>
</g>
<g style="mix-blend-mode:screen" filter="url(#filter7_f_14_44)">
<path fill-rule="evenodd" clip-rule="evenodd" d="M109.983 223.608C127.778 183.274 158.391 135.738 208.555 91.2629C303.092 7.44483 326.859 -63.6464 326.925 -88.7147L414.068 -132.454C464.52 -132.216 532.766 -101.827 402.136 17.8156C362.199 54.3944 326.502 83.6417 295.042 109.418C240.621 154.008 198.876 188.211 169.778 232.013C192.103 249.018 193.558 284.525 126.176 351.621C125.619 355.234 125.097 358.915 124.61 362.666C112.632 454.892 102.251 429.564 95.3387 380.421C60.5339 411.675 29.1031 437.427 1.04249 460.418C-96.1228 540.03 -152.879 586.533 -169.39 713.666C-186.875 848.303 -200.959 732.41 -205.815 657.634C-205.082 620.768 -179.983 526.081 -85.4454 442.263C9.09208 358.445 32.859 287.354 32.9254 262.285L109.983 223.608Z" fill="url(#paint6_radial_14_44)"/>
</g>
<g style="mix-blend-mode:screen" filter="url(#filter8_f_14_44)">
<path d="M404.554 83.6299C310.017 167.448 284.917 262.135 284.185 299.001C289.041 373.777 303.124 489.67 320.61 355.033C342.467 186.737 434.849 159.736 598.136 10.1826C728.766 -109.46 660.52 -139.849 610.068 -140.087L522.925 -96.3476C522.859 -71.2793 499.092 -0.188106 404.554 83.6299Z" fill="url(#paint7_radial_14_44)"/>
</g>
<g style="mix-blend-mode:screen" filter="url(#filter9_f_14_44)">
<path d="M350.821 198.133C178.021 244.133 86.1542 347.966 61.8209 394.133C20.4875 491.799 -35.2791 647.333 72.3209 488.133C206.821 289.133 340.821 313.633 642.321 228.133C883.521 159.733 816.488 77.9661 752.821 45.6328H614.821C598.821 77.2995 523.621 152.133 350.821 198.133Z" fill="url(#paint8_radial_14_44)" fill-opacity="0.6"/>
</g>
</g>
<defs>
<filter id="filter0_f_14_44" x="-503.815" y="-185.772" width="1570.62" height="1028.37" filterUnits="userSpaceOnUse" color-interpolation-filters="sRGB">
<feFlood flood-opacity="0" result="BackgroundImageFix"/>
<feBlend mode="normal" in="SourceGraphic" in2="BackgroundImageFix" result="shape"/>
<feGaussianBlur stdDeviation="10" result="effect1_foregroundBlur_14_44"/>
</filter>
<filter id="filter1_f_14_44" x="-394.634" y="-300.896" width="1217.48" height="958.965" filterUnits="userSpaceOnUse" color-interpolation-filters="sRGB">
<feFlood flood-opacity="0" result="BackgroundImageFix"/>
<feBlend mode="normal" in="SourceGraphic" in2="BackgroundImageFix" result="shape"/>
<feGaussianBlur stdDeviation="67.5618" result="effect1_foregroundBlur_14_44"/>
</filter>
<filter id="filter2_f_14_44" x="-508.38" y="-76.4141" width="713.98" height="593.647" filterUnits="userSpaceOnUse" color-interpolation-filters="sRGB">
<feFlood flood-opacity="0" result="BackgroundImageFix"/>
<feBlend mode="normal" in="SourceGraphic" in2="BackgroundImageFix" result="shape"/>
<feGaussianBlur stdDeviation="67.5618" result="effect1_foregroundBlur_14_44"/>
</filter>
<filter id="filter3_f_14_44" x="227.542" y="-243.332" width="939.91" height="759.769" filterUnits="userSpaceOnUse" color-interpolation-filters="sRGB">
<feFlood flood-opacity="0" result="BackgroundImageFix"/>
<feBlend mode="normal" in="SourceGraphic" in2="BackgroundImageFix" result="shape"/>
<feGaussianBlur stdDeviation="60.323" result="effect1_foregroundBlur_14_44"/>
</filter>
<filter id="filter4_f_14_44" x="-196.815" y="-58.0872" width="469.375" height="637.049" filterUnits="userSpaceOnUse" color-interpolation-filters="sRGB">
<feFlood flood-opacity="0" result="BackgroundImageFix"/>
<feBlend mode="normal" in="SourceGraphic" in2="BackgroundImageFix" result="shape"/>
<feGaussianBlur stdDeviation="20" result="effect1_foregroundBlur_14_44"/>
</filter>
<filter id="filter5_f_14_44" x="10.1849" y="-146.087" width="487.375" height="655.049" filterUnits="userSpaceOnUse" color-interpolation-filters="sRGB">
<feFlood flood-opacity="0" result="BackgroundImageFix"/>
<feBlend mode="normal" in="SourceGraphic" in2="BackgroundImageFix" result="shape"/>
<feGaussianBlur stdDeviation="24.5" result="effect1_foregroundBlur_14_44"/>
</filter>
<filter id="filter7_f_14_44" x="-254.815" y="-181.454" width="781.375" height="1006.05" filterUnits="userSpaceOnUse" color-interpolation-filters="sRGB">
<feFlood flood-opacity="0" result="BackgroundImageFix"/>
<feBlend mode="normal" in="SourceGraphic" in2="BackgroundImageFix" result="shape"/>
<feGaussianBlur stdDeviation="24.5" result="effect1_foregroundBlur_14_44"/>
</filter>
<filter id="filter8_f_14_44" x="235.185" y="-189.087" width="487.375" height="655.049" filterUnits="userSpaceOnUse" color-interpolation-filters="sRGB">
<feFlood flood-opacity="0" result="BackgroundImageFix"/>
<feBlend mode="normal" in="SourceGraphic" in2="BackgroundImageFix" result="shape"/>
<feGaussianBlur stdDeviation="24.5" result="effect1_foregroundBlur_14_44"/>
</filter>
<filter id="filter9_f_14_44" x="-39" y="-3.36719" width="900.492" height="608.918" filterUnits="userSpaceOnUse" color-interpolation-filters="sRGB">
<feFlood flood-opacity="0" result="BackgroundImageFix"/>
<feBlend mode="normal" in="SourceGraphic" in2="BackgroundImageFix" result="shape"/>
<feGaussianBlur stdDeviation="24.5" result="effect1_foregroundBlur_14_44"/>
</filter>
<radialGradient id="paint0_radial_14_44" cx="0" cy="0" r="1" gradientUnits="userSpaceOnUse" gradientTransform="translate(164.01 237.569) rotate(-154.057) scale(430.794 365.238)">
<stop stop-color="#4D9FFE"/>
<stop offset="1" stop-color="#00D3FF" stop-opacity="0.3"/>
</radialGradient>
<radialGradient id="paint1_radial_14_44" cx="0" cy="0" r="1" gradientUnits="userSpaceOnUse" gradientTransform="translate(-175.698 249.028) rotate(-154.057) scale(209.025 177.217)">
<stop stop-color="#00E29A"/>
<stop offset="1" stop-color="#2C32FE" stop-opacity="0.31"/>
</radialGradient>
<radialGradient id="paint2_radial_14_44" cx="0" cy="0" r="1" gradientUnits="userSpaceOnUse" gradientTransform="translate(604.535 215.908) rotate(-144.112) scale(282.425 268.833)">
<stop stop-color="#5BDCC6"/>
<stop offset="1" stop-color="#008CAA" stop-opacity="0.1"/>
</radialGradient>
<radialGradient id="paint3_radial_14_44" cx="0" cy="0" r="1" gradientUnits="userSpaceOnUse" gradientTransform="translate(79.2254 138.686) rotate(122.832) scale(224.278 197.239)">
<stop stop-color="#F0E011"/>
<stop offset="1" stop-color="#E3D415" stop-opacity="0"/>
</radialGradient>
<radialGradient id="paint4_radial_14_44" cx="0" cy="0" r="1" gradientUnits="userSpaceOnUse" gradientTransform="translate(295.225 59.6864) rotate(122.832) scale(224.278 197.239)">
<stop stop-color="#F0E011"/>
<stop offset="1" stop-color="#484EB7" stop-opacity="0"/>
<stop offset="1" stop-color="#F0E011" stop-opacity="0"/>
</radialGradient>
<radialGradient id="paint5_radial_14_44" cx="0" cy="0" r="1" gradientUnits="userSpaceOnUse" gradientTransform="translate(-247.775 422.319) rotate(122.832) scale(224.278 197.239)">
<stop stop-color="#F0E011"/>
<stop offset="1" stop-color="#484EB7" stop-opacity="0"/>
<stop offset="1" stop-color="#F0E011" stop-opacity="0"/>
</radialGradient>
<radialGradient id="paint6_radial_14_44" cx="0" cy="0" r="1" gradientUnits="userSpaceOnUse" gradientTransform="translate(30.2257 375.319) rotate(122.832) scale(224.278 197.239)">
<stop stop-color="#149DCF"/>
<stop offset="1" stop-color="#484EB7" stop-opacity="0"/>
<stop offset="1" stop-color="#9FA7FF" stop-opacity="0"/>
</radialGradient>
<radialGradient id="paint7_radial_14_44" cx="0" cy="0" r="1" gradientUnits="userSpaceOnUse" gradientTransform="translate(520.225 16.6864) rotate(122.832) scale(224.278 197.239)">
<stop stop-color="#F0E011"/>
<stop offset="1" stop-color="#484EB7" stop-opacity="0"/>
<stop offset="1" stop-color="#9FA7FF" stop-opacity="0"/>
<stop offset="1" stop-color="#F0E011" stop-opacity="0"/>
</radialGradient>
<radialGradient id="paint8_radial_14_44" cx="0" cy="0" r="1" gradientUnits="userSpaceOnUse" gradientTransform="translate(539.64 186.895) rotate(149.487) scale(317.425 279.152)">
<stop stop-color="#2991FF"/>
<stop offset="1" stop-color="#85C0FF" stop-opacity="0"/>
</radialGradient>
</defs>
</svg>
