<svg width="161" height="117" viewBox="0 0 161 117" fill="none" xmlns="http://www.w3.org/2000/svg">
<rect width="161" height="117" fill="#141414"/>
<g clip-path="url(#clip0_314_100)">
<path d="M7.64616 74.214C6.85205 74.214 6.20405 74.0557 5.70216 73.739C5.20028 73.4223 4.94934 72.9283 4.94934 72.257L4.95887 72.067H5.85463C5.84193 72.1557 5.83557 72.2222 5.83557 72.2665C5.83557 72.6528 5.9944 72.9473 6.31205 73.15C6.63604 73.3463 7.06487 73.4445 7.59852 73.4445C8.19569 73.4445 8.6531 73.3527 8.97075 73.169C9.2884 72.979 9.44722 72.7098 9.44722 72.3615C9.44722 72.1272 9.36463 71.934 9.19946 71.782C9.03428 71.6237 8.82463 71.5002 8.57052 71.4115C8.32275 71.3228 7.98604 71.2247 7.5604 71.117C7.0331 70.984 6.60746 70.8573 6.28346 70.737C5.95946 70.6103 5.6831 70.4267 5.4544 70.186C5.22569 69.939 5.11134 69.616 5.11134 69.217C5.11134 68.647 5.34957 68.2132 5.82604 67.9155C6.30252 67.6178 6.9124 67.469 7.65569 67.469C8.39899 67.469 9.00252 67.621 9.46628 67.925C9.93005 68.2227 10.1619 68.6818 10.1619 69.3025V69.4165H9.27569V69.274C9.27569 68.951 9.1264 68.6977 8.82781 68.514C8.53557 68.3303 8.1544 68.2385 7.68428 68.2385C7.1824 68.2385 6.77899 68.3145 6.47405 68.4665C6.17546 68.6185 6.02616 68.8465 6.02616 69.1505C6.02616 69.3722 6.10557 69.5527 6.2644 69.692C6.42957 69.8313 6.62969 69.9453 6.86475 70.034C7.10616 70.1163 7.43969 70.2113 7.86534 70.319C8.39263 70.452 8.82146 70.5818 9.15181 70.7085C9.48852 70.8352 9.77122 71.022 9.99993 71.269C10.235 71.5097 10.3525 71.8263 10.3525 72.219C10.3525 72.9157 10.1079 73.4223 9.61875 73.739C9.13593 74.0557 8.4784 74.214 7.64616 74.214Z" fill="white"/>
<path d="M26.7906 74.214C25.7551 74.214 24.9515 73.9322 24.3797 73.3685C23.8143 72.7985 23.5316 71.9562 23.5316 70.8415C23.5316 69.7268 23.8143 68.8877 24.3797 68.324C24.9515 67.754 25.7551 67.469 26.7906 67.469C27.8325 67.469 28.6362 67.754 29.2016 68.324C29.7733 68.8877 30.0592 69.7268 30.0592 70.8415C30.0592 71.9498 29.7733 72.789 29.2016 73.359C28.6362 73.929 27.8325 74.214 26.7906 74.214ZM26.7906 73.4445C27.5466 73.4445 28.1248 73.2418 28.525 72.8365C28.9252 72.4248 29.1253 71.7725 29.1253 70.8795V70.8415C29.119 69.9358 28.9157 69.2772 28.5155 68.8655C28.1152 68.4475 27.5403 68.2385 26.7906 68.2385C26.0473 68.2385 25.4756 68.4475 25.0753 68.8655C24.6751 69.2772 24.4718 69.9358 24.4655 70.8415V70.8795C24.4655 71.7725 24.6656 72.4248 25.0658 72.8365C25.466 73.2418 26.041 73.4445 26.7906 73.4445Z" fill="white"/>
<path d="M43.4987 67.583H44.404V73.3115H47.7584V74.1H43.4987V67.583Z" fill="white"/>
<path d="M63.717 74.214C62.8593 74.214 62.1986 74.0082 61.7348 73.5965C61.2711 73.1848 61.0392 72.5515 61.0392 71.6965V67.583H61.9445V71.744C61.9445 72.3013 62.097 72.7257 62.4019 73.017C62.7132 73.302 63.1515 73.4445 63.717 73.4445C64.2887 73.4445 64.7303 73.2988 65.0415 73.0075C65.3528 72.7162 65.5085 72.295 65.5085 71.744V67.583H66.4138V71.6965C66.4138 72.5515 66.1819 73.1848 65.7181 73.5965C65.2544 74.0082 64.5873 74.214 63.717 74.214Z" fill="white"/>
<path d="M81.8674 68.3715H79.6185V67.583H85.0217V68.3715H82.7727V74.1H81.8674V68.3715Z" fill="white"/>
<path d="M98.3564 67.583H99.2617V74.1H98.3564V67.583Z" fill="white"/>
<path d="M116.084 74.214C115.049 74.214 114.245 73.9322 113.673 73.3685C113.108 72.7985 112.825 71.9562 112.825 70.8415C112.825 69.7268 113.108 68.8877 113.673 68.324C114.245 67.754 115.049 67.469 116.084 67.469C117.126 67.469 117.93 67.754 118.495 68.324C119.067 68.8877 119.353 69.7268 119.353 70.8415C119.353 71.9498 119.067 72.789 118.495 73.359C117.93 73.929 117.126 74.214 116.084 74.214ZM116.084 73.4445C116.84 73.4445 117.418 73.2418 117.819 72.8365C118.219 72.4248 118.419 71.7725 118.419 70.8795V70.8415C118.413 69.9358 118.209 69.2772 117.809 68.8655C117.409 68.4475 116.834 68.2385 116.084 68.2385C115.341 68.2385 114.769 68.4475 114.369 68.8655C113.969 69.2772 113.765 69.9358 113.759 70.8415V70.8795C113.759 71.7725 113.959 72.4248 114.359 72.8365C114.76 73.2418 115.335 73.4445 116.084 73.4445Z" fill="white"/>
<path d="M132.792 67.583H133.602L137.052 72.124L137.281 72.428L137.319 72.4185V67.583H138.167V74.1H137.395L133.926 69.502L133.679 69.1695L133.64 69.179V74.1H132.792V67.583Z" fill="white"/>
<path d="M154.326 74.214C153.532 74.214 152.884 74.0557 152.382 73.739C151.88 73.4223 151.629 72.9283 151.629 72.257L151.638 72.067H152.534C152.521 72.1557 152.515 72.2222 152.515 72.2665C152.515 72.6528 152.674 72.9473 152.992 73.15C153.316 73.3463 153.744 73.4445 154.278 73.4445C154.875 73.4445 155.333 73.3527 155.65 73.169C155.968 72.979 156.127 72.7098 156.127 72.3615C156.127 72.1272 156.044 71.934 155.879 71.782C155.714 71.6237 155.504 71.5002 155.25 71.4115C155.002 71.3228 154.666 71.2247 154.24 71.117C153.713 70.984 153.287 70.8573 152.963 70.737C152.639 70.6103 152.363 70.4267 152.134 70.186C151.905 69.939 151.791 69.616 151.791 69.217C151.791 68.647 152.029 68.2132 152.506 67.9155C152.982 67.6178 153.592 67.469 154.335 67.469C155.079 67.469 155.682 67.621 156.146 67.925C156.61 68.2227 156.841 68.6818 156.841 69.3025V69.4165H155.955V69.274C155.955 68.951 155.806 68.6977 155.507 68.514C155.215 68.3303 154.834 68.2385 154.364 68.2385C153.862 68.2385 153.459 68.3145 153.154 68.4665C152.855 68.6185 152.706 68.8465 152.706 69.1505C152.706 69.3722 152.785 69.5527 152.944 69.692C153.109 69.8313 153.309 69.9453 153.544 70.034C153.786 70.1163 154.119 70.2113 154.545 70.319C155.072 70.452 155.501 70.5818 155.831 70.7085C156.168 70.8352 156.451 71.022 156.679 71.269C156.915 71.5097 157.032 71.8263 157.032 72.219C157.032 72.9157 156.787 73.4223 156.298 73.739C155.815 74.0557 155.158 74.214 154.326 74.214Z" fill="white"/>
<path d="M2.47754 42.6626H8.01222C10.2764 42.6626 12.0235 43.2548 13.2534 44.4391C14.4833 45.6234 15.0983 47.4208 15.0983 49.8313C15.0983 52.2418 14.4833 54.0392 13.2534 55.2235C12.0235 56.4078 10.2764 57 8.01222 57H2.47754V42.6626ZM8.01222 55.0145C9.53566 55.0145 10.6957 54.6104 11.4924 53.8023C12.303 52.9802 12.7083 51.6984 12.7083 49.9567V49.7268C12.7083 47.9712 12.303 46.6893 11.4924 45.8812C10.6957 45.0591 9.53566 44.6481 8.01222 44.6481H4.80462V55.0145H8.01222Z" fill="white"/>
<path d="M22.0099 42.6626H29.5363C31.0317 42.6626 32.1708 43.0388 32.9535 43.7912C33.7362 44.5436 34.1275 45.5677 34.1275 46.8635C34.1275 47.8528 33.9039 48.6957 33.4567 49.3924C33.0094 50.0891 32.3665 50.5976 31.5279 50.9181L34.7145 57H32.1778L29.2218 51.2525H24.337V57H22.0099V42.6626ZM29.3895 49.2879C30.1303 49.2879 30.7103 49.0789 31.1296 48.6609C31.5628 48.229 31.7795 47.6368 31.7795 46.8844C31.7795 46.1738 31.5768 45.6234 31.1715 45.2333C30.7662 44.8432 30.1722 44.6481 29.3895 44.6481H24.337V49.2879H29.3895Z" fill="white"/>
<path d="M41.5424 42.6626H52.6956V44.6481H43.8695V48.6818H51.7732V50.6673H43.8695V55.0145H52.8214V57H41.5424V42.6626Z" fill="white"/>
<path d="M64.0792 42.6626H67.0143L72.5909 57H70.1171L68.7963 53.5097H62.1714L60.8716 57H58.4816L64.0792 42.6626ZM68.0415 51.5242L66.4692 47.3233L65.5258 44.6481H65.421L65.2323 45.1915C64.9947 45.916 64.7501 46.6127 64.4985 47.2815L62.9052 51.5242H68.0415Z" fill="white"/>
<path d="M78.6621 42.6626H82.1632L85.1822 51.8586C85.3639 52.4299 85.5805 53.2589 85.8321 54.3457H85.9159C86.1675 53.1753 86.3771 52.3463 86.5449 51.8586L89.5428 42.6626H92.981V57H90.6539V47.6368L90.7378 45.0661H90.591C90.4513 45.6931 90.3255 46.1877 90.2137 46.55L86.7545 57H84.7209L81.3037 46.55C81.2338 46.341 81.136 45.9857 81.0102 45.4841L80.9054 45.0661H80.8005L80.8634 47.6368V57H78.6621V42.6626Z" fill="white"/>
<path d="M110.766 42.6626H116.301C118.565 42.6626 120.312 43.2548 121.542 44.4391C122.772 45.6234 123.387 47.4208 123.387 49.8313C123.387 52.2418 122.772 54.0392 121.542 55.2235C120.312 56.4078 118.565 57 116.301 57H110.766V42.6626ZM116.301 55.0145C117.824 55.0145 118.984 54.6104 119.781 53.8023C120.591 52.9802 120.997 51.6984 120.997 49.9567V49.7268C120.997 47.9712 120.591 46.6893 119.781 45.8812C118.984 45.0591 117.824 44.6481 116.301 44.6481H113.093V55.0145H116.301Z" fill="white"/>
<path d="M130.298 42.6626H141.452V44.6481H132.625V48.6818H140.529V50.6673H132.625V55.0145H141.577V57H130.298V42.6626Z" fill="white"/>
<path d="M147.363 42.6626H149.879L153.338 52.2975L153.569 52.9663L154.114 54.5547H154.219L154.68 53.238C154.736 53.0429 154.792 52.8688 154.848 52.7155C154.904 52.5483 154.953 52.402 154.995 52.2766L158.433 42.6626H160.823L155.54 57H152.668L147.363 42.6626Z" fill="white"/>
</g>
<defs>
<clipPath id="clip0_314_100">
<rect width="159" height="33" fill="white" transform="translate(2 42)"/>
</clipPath>
</defs>
</svg>
